<!--?xml version="1.0" standalone="no"?-->
              <svg id="sw-js-blob-svg" viewBox="0 0 100 100" xmlns="http://www.w3.org/2000/svg" version="1.1">
                    <defs> 
                        <linearGradient id="sw-gradient" x1="0" x2="1" y1="1" y2="0">
                            <stop id="stop1" stop-color="rgba(248, 117, 55, 1)" offset="0%"></stop>
                            <stop id="stop2" stop-color="rgba(251, 168, 31, 1)" offset="100%"></stop>
                        </linearGradient>
                    </defs>
                <path fill="url(#sw-gradient)" d="M19.3,-27.5C23,-27.7,22.4,-18.9,25.3,-11.8C28.2,-4.7,34.5,0.6,33.2,4.2C31.8,7.9,22.8,9.9,16.2,9.6C9.6,9.2,5.3,6.5,2.5,6.5C-0.4,6.5,-2,9.3,-5.5,11.5C-9,13.7,-14.4,15.5,-21.7,14.6C-29,13.7,-38.1,10.3,-40.6,4.7C-43.1,-0.8,-39,-8.4,-34.2,-14.3C-29.4,-20.2,-24,-24.5,-18.2,-23.3C-12.4,-22,-6.2,-15.2,0.8,-16.5C7.8,-17.8,15.7,-27.2,19.3,-27.5Z" width="100%" height="100%" transform="translate(50 50)" style="transition: 0.3s;" stroke-width="0"></path>
              </svg>