<!--?xml version="1.0" standalone="no"?-->
              <svg id="sw-js-blob-svg" viewBox="0 0 100 100" xmlns="http://www.w3.org/2000/svg" version="1.1">
                    <defs> 
                        <linearGradient id="sw-gradient" x1="0" x2="1" y1="1" y2="0">
                            <stop id="stop1" stop-color="rgba(248, 117, 55, 1)" offset="0%"></stop>
                            <stop id="stop2" stop-color="rgba(251, 168, 31, 1)" offset="100%"></stop>
                        </linearGradient>
                    </defs>
                <path fill="url(#sw-gradient)" d="M20.3,-34.8C22.9,-30,19.3,-18.6,19.5,-11C19.6,-3.5,23.6,0.2,22.5,2.8C21.4,5.3,15.2,6.5,11,7.3C6.9,8.1,4.7,8.4,1.8,11.9C-1.1,15.4,-4.8,22,-9.4,24.2C-14,26.4,-19.5,24.1,-18.2,19.3C-16.8,14.5,-8.5,7.3,-10.6,0.8C-12.6,-5.7,-25.2,-11.5,-28.4,-16.5C-31.6,-21.6,-25.6,-26,-19.3,-29.2C-13.1,-32.3,-6.5,-34.2,1.2,-36C8.9,-37.9,17.7,-39.6,20.3,-34.8Z" width="100%" height="100%" transform="translate(50 50)" style="transition: 0.3s;" stroke-width="0"></path>
              </svg>