<!--?xml version="1.0" standalone="no"?-->
              <svg id="sw-js-blob-svg" viewBox="0 0 100 100" xmlns="http://www.w3.org/2000/svg" version="1.1">
                    <defs> 
                        <linearGradient id="sw-gradient" x1="0" x2="1" y1="1" y2="0">
                            <stop id="stop1" stop-color="rgba(248, 117, 55, 1)" offset="0%"></stop>
                            <stop id="stop2" stop-color="rgba(251, 168, 31, 1)" offset="100%"></stop>
                        </linearGradient>
                    </defs>
                <path fill="url(#sw-gradient)" d="M17.2,-26.7C21,-24.2,22.2,-17.4,23.3,-11.6C24.5,-5.8,25.7,-1,25.9,4.4C26.2,9.7,25.5,15.6,21.4,16.4C17.4,17.1,9.9,12.7,3.9,15.5C-2.1,18.3,-6.7,28.3,-8.2,27.9C-9.8,27.5,-8.3,16.7,-14.3,11.5C-20.2,6.2,-33.6,6.5,-34.1,4.8C-34.6,3,-22.2,-0.7,-17.4,-6.6C-12.6,-12.5,-15.5,-20.5,-13.8,-24C-12.2,-27.6,-6.1,-26.7,0.3,-27.2C6.6,-27.6,13.3,-29.3,17.2,-26.7Z" width="100%" height="100%" transform="translate(50 50)" style="transition: 0.3s;" stroke-width="0"></path>
              </svg>