<!--?xml version="1.0" standalone="no"?-->
              <svg id="sw-js-blob-svg" viewBox="0 0 100 100" xmlns="http://www.w3.org/2000/svg" version="1.1">
                    <defs> 
                        <linearGradient id="sw-gradient" x1="0" x2="1" y1="1" y2="0">
                            <stop id="stop1" stop-color="rgba(248, 117, 55, 1)" offset="0%"></stop>
                            <stop id="stop2" stop-color="rgba(251, 168, 31, 1)" offset="100%"></stop>
                        </linearGradient>
                    </defs>
                <path fill="url(#sw-gradient)" d="M7.2,-16.8C7.5,-10.9,4.9,-6,5.9,-2.9C6.9,0.1,11.6,1.2,14.6,4.3C17.6,7.4,18.9,12.5,18,18.3C17.2,24.2,14.1,31,9.5,32.3C4.9,33.6,-1.3,29.6,-8.7,28.1C-16.1,26.6,-24.7,27.7,-26.5,23.9C-28.3,20.1,-23.4,11.4,-24,3.8C-24.6,-3.8,-30.7,-10.3,-29.2,-13.3C-27.8,-16.3,-18.8,-15.8,-12.7,-19.1C-6.6,-22.5,-3.3,-29.5,0,-29.6C3.4,-29.7,6.8,-22.8,7.2,-16.8Z" width="100%" height="100%" transform="translate(50 50)" style="transition: 0.3s;" stroke-width="0"></path>
              </svg>