<!--?xml version="1.0" standalone="no"?-->
              <svg id="sw-js-blob-svg" viewBox="0 0 100 100" xmlns="http://www.w3.org/2000/svg" version="1.1">
                    <defs> 
                        <linearGradient id="sw-gradient" x1="0" x2="1" y1="1" y2="0">
                            <stop id="stop1" stop-color="rgba(248, 117, 55, 1)" offset="0%"></stop>
                            <stop id="stop2" stop-color="rgba(251, 168, 31, 1)" offset="100%"></stop>
                        </linearGradient>
                    </defs>
                <path fill="url(#sw-gradient)" d="M2.1,-9.4C3.4,-2.4,5.6,-3,6.2,-2.5C6.9,-2.1,6.1,-0.7,8.6,3.3C11.2,7.2,17.2,13.6,18,19.3C18.8,24.9,14.5,29.7,8.3,34.3C2.1,38.9,-5.9,43.2,-9.1,38.7C-12.2,34.2,-10.5,20.9,-11.5,13.5C-12.6,6,-16.4,4.5,-15.8,2.8C-15.2,1.1,-10.2,-0.6,-7.5,-2C-4.7,-3.5,-4.1,-4.5,-3.3,-11.7C-2.4,-18.9,-1.2,-32.2,-0.4,-31.5C0.4,-30.9,0.8,-16.3,2.1,-9.4Z" width="100%" height="100%" transform="translate(50 50)" style="transition: 0.3s;" stroke-width="0"></path>
              </svg>