<!--?xml version="1.0" standalone="no"?-->
              <svg id="sw-js-blob-svg" viewBox="0 0 100 100" xmlns="http://www.w3.org/2000/svg" version="1.1">
                    <defs> 
                        <linearGradient id="sw-gradient" x1="0" x2="1" y1="1" y2="0">
                            <stop id="stop1" stop-color="rgba(248, 117, 55, 1)" offset="0%"></stop>
                            <stop id="stop2" stop-color="rgba(251, 168, 31, 1)" offset="100%"></stop>
                        </linearGradient>
                    </defs>
                <path fill="url(#sw-gradient)" d="M11.9,-21.9C15.9,-16,19.7,-13.4,25.7,-9.2C31.7,-4.9,39.7,1,35.9,2.9C32.1,4.8,16.4,2.7,8.9,3C1.4,3.3,2,6,-0.3,13C-2.5,20,-7.5,31.3,-13.6,34.7C-19.6,38.2,-26.8,33.8,-29.7,27.4C-32.7,21.1,-31.5,12.7,-28.7,6.5C-25.9,0.3,-21.6,-3.8,-17.6,-6.2C-13.6,-8.6,-10,-9.3,-7.2,-15.7C-4.3,-22.1,-2.2,-34.1,0.9,-35.5C4,-37,8,-27.8,11.9,-21.9Z" width="100%" height="100%" transform="translate(50 50)" style="transition: 0.3s;" stroke-width="0"></path>
              </svg>