<svg version="1.1" xmlns="http://www.w3.org/2000/svg" xmlns:xlink="http://www.w3.org/1999/xlink" width="500" height="500" viewBox="0,0,500,500"><g fill="#4e1236" fill-rule="nonzero" stroke="none" stroke-width="1" stroke-linecap="butt" stroke-linejoin="miter" stroke-miterlimit="10" stroke-dasharray="" stroke-dashoffset="0" font-family="none" font-weight="none" font-size="none" text-anchor="none" style="mix-blend-mode: normal"><path d="M355.47758,250c-32.25608,12.37162 -69.33815,11.02304 -90.69618,4.14155c-21.35803,-6.88148 -26.99202,-19.29587 -3.2873,2.84816c23.70472,22.14403 76.74813,78.84647 83.39848,94.61542c6.65034,15.76895 -33.09239,-9.39559 -56.26451,-27.05636c-23.17213,-17.66077 -29.77365,-27.81778 -31.58543,-40.65777c-1.81178,-12.83998 1.1662,-28.36295 -8.52694,-12.19118c-9.69314,16.17177 -32.0574,64.03827 -26.05198,55.77987c6.00542,-8.2584 40.38052,-72.64171 22.32655,-70.09918c-18.05397,2.54253 -88.53702,72.01089 -105.65229,82.81243c-17.11527,10.80154 19.13722,-37.06373 44.54823,-61.3888c25.41101,-24.32508 39.98053,-25.10995 40.3952,-25.24172c0.41468,-0.13177 -13.32549,0.38958 -42.82175,-13.01057c-29.49626,-13.40015 -74.74861,-40.72179 -75.26051,-53.10026c-0.5119,-12.37847 43.71666,-9.81376 73.76687,5.40881c30.05021,15.22257 45.92208,43.10301 38.43366,12.08878c-7.48842,-31.01423 -38.33712,-120.92311 -34.86407,-142.52484c3.47306,-21.60173 41.26787,25.10371 57.87538,59.08471c16.60751,33.981 12.02771,55.23756 26.81591,41.74081c14.7882,-13.49674 48.94439,-61.74679 55.13002,-54.43629c6.18563,7.31051 -15.59931,70.18158 -38.06297,103.60999c-22.46366,33.42841 -45.60605,37.41417 -19.59871,28.15357c26.00734,-9.2606 101.16441,-31.76755 125.33019,-30.03458c24.16578,1.73298 -3.09175,27.08581 -35.34784,39.45743z"/></g></svg>