<svg version="1.1" xmlns="http://www.w3.org/2000/svg" xmlns:xlink="http://www.w3.org/1999/xlink" width="500" height="500" viewBox="0,0,500,500"><g fill="#4e1236" fill-rule="nonzero" stroke="none" stroke-width="1" stroke-linecap="butt" stroke-linejoin="miter" stroke-miterlimit="10" stroke-dasharray="" stroke-dashoffset="0" font-family="none" font-weight="none" font-size="none" text-anchor="none" style="mix-blend-mode: normal"><path d="M255.87913,250c8.15639,11.67702 92.38913,32.3942 91.17034,27.19199c-1.21879,-5.20221 -87.88913,-36.32381 -96.963,-27.1394c-9.07387,9.1844 59.44872,58.67481 85.69685,91.79892c26.24813,33.12411 10.22179,49.88193 -5.93473,62.24927c-16.15652,12.36735 -32.44323,20.34422 -46.70298,5.40465c-14.25975,-14.93958 -26.49254,-52.7956 -39.81451,-62.00955c-13.32197,-9.21394 -27.73312,10.2142 -27.62424,-1.00421c0.10888,-11.21842 14.73779,-53.08339 9.28195,-61.05888c-5.45583,-7.97548 -30.99641,17.93853 -49.36349,25.07551c-18.36708,7.13698 -29.56067,-4.50307 -24.28594,-17.65394c5.27473,-13.15087 27.01776,-27.81256 46.81547,-35.7284c19.7977,-7.91585 37.65007,-9.08585 46.97318,-7.79559c9.32312,1.29026 10.11698,5.04078 1.22828,-0.91304c-8.8887,-5.95383 -27.45996,-21.612 -31.47102,-26.98525c-4.01106,-5.37325 6.53809,-0.46158 12.01257,-4.16034c5.47447,-3.69877 5.87427,-16.00797 8.5811,-8.13002c2.70682,7.87795 7.72067,35.94304 13.36783,23.99886c5.64715,-11.94418 11.92761,-63.89764 23.2914,-89.67535c11.36379,-25.77771 27.81093,-25.37966 47.73626,-28.31676c19.92533,-2.9371 43.32886,-9.20936 59.59511,-3.77649c16.26625,5.43287 25.39523,22.57085 24.86272,44.77651c-0.53251,22.20565 -10.72651,49.47898 -49.62579,64.51416c-38.89928,15.03518 -106.98375,17.66036 -98.82736,29.33738z"/></g></svg>