<svg version="1.1" xmlns="http://www.w3.org/2000/svg" xmlns:xlink="http://www.w3.org/1999/xlink" width="500" height="500" viewBox="0,0,500,500"><g fill="#ff0000" fill-rule="nonzero" stroke="none" stroke-width="1" stroke-linecap="butt" stroke-linejoin="miter" stroke-miterlimit="10" stroke-dasharray="" stroke-dashoffset="0" font-family="none" font-weight="none" font-size="none" text-anchor="none" style="mix-blend-mode: normal"><path d="M439.14603,250c3.91137,17.63299 -44.27328,42.63423 -85.49623,42.93315c-41.22294,0.29892 -75.48418,-24.10448 -88.68108,-27.96443c-13.1969,-3.85995 -5.32947,12.82357 -2.9032,14.16002c2.42626,1.33645 -0.58864,-12.67417 -12.06552,-0.59309c-11.47688,12.08108 -31.41575,50.25384 -31.35068,47.1516c0.06506,-3.10224 20.13405,-47.47949 11.72958,-56.06614c-8.40447,-8.58665 -45.28241,18.61731 -74.5044,19.36695c-29.22199,0.74964 -50.78804,-24.95502 -38.41767,-38.98806c12.37037,-14.03304 58.67715,-16.39444 82.61021,-20.68291c23.93306,-4.28846 25.49241,-10.50398 26.63408,-2.61597c1.14168,7.88801 1.86568,29.87956 7.33058,-15.25201c5.46489,-45.13157 15.67067,-157.38626 15.9683,-145.51481c0.29763,11.87145 -9.31289,147.86904 0.50439,182.84799c9.81728,34.97896 39.06236,-31.06072 54.38313,-53.66982c15.32077,-22.6091 16.71723,-1.78762 45.48156,13.31329c28.76433,15.10091 84.86558,23.94124 88.77696,41.57423z"/></g></svg>