<svg version="1.1" xmlns="http://www.w3.org/2000/svg" xmlns:xlink="http://www.w3.org/1999/xlink" width="500" height="500" viewBox="0,0,500,500"><g fill="#4e1236" fill-rule="nonzero" stroke="none" stroke-width="1" stroke-linecap="butt" stroke-linejoin="miter" stroke-miterlimit="10" stroke-dasharray="" stroke-dashoffset="0" font-family="none" font-weight="none" font-size="none" text-anchor="none" style="mix-blend-mode: normal"><path d="M294.23154,250c12.30915,7.332 64.78479,20.6653 88.84735,37.28696c24.06256,16.62165 19.71205,36.53166 11.06395,50.36825c-8.6481,13.83658 -21.5938,21.59974 -37.49759,26.53398c-15.90379,4.93423 -34.76568,7.03953 -53.39211,-11.41528c-18.62643,-18.45482 -37.0174,-57.46976 -44.57972,-61.03509c-7.56232,-3.56533 -4.29598,28.31895 -15.08318,51.96851c-10.7872,23.64956 -35.62792,39.06441 -33.68241,19.10122c1.94552,-19.96319 30.67728,-75.30442 18.49504,-82.21238c-12.18225,-6.90796 -65.2785,34.61736 -56.73499,33.13175c8.54351,-1.48561 78.72679,-45.98216 61.13017,-56.25604c-17.59662,-10.27389 -122.97315,13.67489 -147.05389,15.10458c-24.08074,1.4297 33.13431,-19.65968 38.22946,-39.89837c5.09515,-20.2387 -41.9296,-39.62671 -52.28137,-60.12806c-10.35177,-20.50135 15.96945,-42.11603 54.64789,-23.15478c38.67844,18.96125 89.71411,78.49844 101.18335,68.7628c11.46925,-9.73564 -16.62793,-88.7441 -19.37842,-85.92654c-2.75049,2.81756 19.8457,87.46115 38.76003,72.52265c18.91434,-14.9385 34.14683,-129.45908 43.18582,-147.68225c9.03899,-18.22317 11.88449,59.85106 6.59658,102.82533c-5.28791,42.97426 -18.70923,50.84856 -4.61939,45.05884c14.08983,-5.78972 55.69082,-25.24346 67.84222,-21.79401c12.1514,3.44945 -5.14679,29.80209 -27.67946,43.79794c-22.53267,13.99585 -50.30847,15.708 -37.99932,23.04001z"/></g></svg>