<svg version="1.1" xmlns="http://www.w3.org/2000/svg" xmlns:xlink="http://www.w3.org/1999/xlink" width="500" height="500" viewBox="0,0,500,500"><g fill="#4e1236" fill-rule="nonzero" stroke="none" stroke-width="1" stroke-linecap="butt" stroke-linejoin="miter" stroke-miterlimit="10" stroke-dasharray="" stroke-dashoffset="0" font-family="none" font-weight="none" font-size="none" text-anchor="none" style="mix-blend-mode: normal"><path d="M294.68321,250c-46.88532,3.72318 -73.78208,-17.22195 -37.279,2.07456c36.50309,19.29652 136.40602,78.83469 155.88908,97.22629c19.48306,18.3916 -41.45377,-4.36337 -68.46974,2.23038c-27.01597,6.59375 -20.1111,42.53621 -31.81207,20.0754c-11.70098,-22.46081 -42.00781,-103.32489 -56.02188,-87.97082c-14.01406,15.35407 -11.73536,126.92629 -19.80013,153.6474c-8.06477,26.72111 -26.47302,-31.40888 -30.29909,-65.98438c-3.82607,-34.57551 6.93003,-45.59652 -15.03735,-38.92335c-21.96738,6.67317 -76.65824,31.04054 -59.44204,13.29027c17.21619,-17.75027 106.33944,-77.61819 114.39178,-94.277c8.05234,-16.65881 -64.96622,9.89149 -105.1006,13.49644c-40.13438,3.60495 -47.38457,-15.73545 -58.94818,-37.87263c-11.5636,-22.13717 -27.44061,-47.07112 -15.36697,-56.33258c12.07363,-9.26146 52.09791,-2.85043 70.52768,-11.86815c18.42977,-9.01772 15.26502,-33.46419 32.54584,-21.49359c17.28082,11.9706 55.00719,60.35826 67.30502,78.25732c12.29782,17.89906 -0.8329,5.30951 7.47341,-35.17946c8.30631,-40.48897 38.04966,-108.87735 37.75747,-89.18368c-0.29219,19.69368 -30.61993,127.46941 -30.23532,153.45885c0.38461,25.98944 31.48156,-29.80743 51.79183,-53.08322c20.31027,-23.2758 29.83385,-14.03052 56.62423,-9.1964c26.79038,4.83412 70.84755,5.2571 59.17647,19.87749c-11.67109,14.62039 -78.78511,44.00768 -125.67043,47.73085z"/></g></svg>